<svg xmlns="http://www.w3.org/2000/svg" xmlns:xlink="http://www.w3.org/1999/xlink" width="1080" zoomAndPan="magnify" viewBox="0 0 810 211.499994" height="282" preserveAspectRatio="xMidYMid meet" version="1.0"><defs><g/><clipPath id="858a684818"><path d="M 0.957031 0 L 809.042969 0 L 809.042969 211 L 0.957031 211 Z M 0.957031 0 " clip-rule="nonzero"/></clipPath><clipPath id="b2afb6cd16"><path d="M 54.226562 6.105469 L 162 6.105469 L 162 204 L 54.226562 204 Z M 54.226562 6.105469 " clip-rule="nonzero"/></clipPath><clipPath id="76e647d8c1"><path d="M 54.226562 6.105469 L 162.71875 6.105469 L 162.71875 204.386719 L 54.226562 204.386719 Z M 54.226562 6.105469 " clip-rule="nonzero"/></clipPath><clipPath id="a72fcc801f"><path d="M 114 164 L 157.542969 164 L 157.542969 197 L 114 197 Z M 114 164 " clip-rule="nonzero"/></clipPath><clipPath id="fd7f0991e4"><path d="M 59.527344 164 L 104 164 L 104 197 L 59.527344 197 Z M 59.527344 164 " clip-rule="nonzero"/></clipPath><clipPath id="74a81fd96f"><path d="M 81 99.347656 L 136 99.347656 L 136 128 L 81 128 Z M 81 99.347656 " clip-rule="nonzero"/></clipPath></defs><g clip-path="url(#858a684818)"><path fill="#ffffff" d="M 0.957031 0 L 809.042969 0 L 809.042969 1084.933594 L 0.957031 1084.933594 Z M 0.957031 0 " fill-opacity="1" fill-rule="nonzero"/><path fill="#ffffff" d="M 0.957031 0 L 809.042969 0 L 809.042969 211 L 0.957031 211 Z M 0.957031 0 " fill-opacity="1" fill-rule="nonzero"/><path fill="#fea712" d="M 0.957031 0 L 809.042969 0 L 809.042969 211 L 0.957031 211 Z M 0.957031 0 " fill-opacity="1" fill-rule="nonzero"/></g><g clip-path="url(#b2afb6cd16)"><path fill="#d73114" d="M 54.949219 203.609375 L 54.949219 6.882812 L 161.996094 6.882812 L 161.996094 203.609375 Z M 54.949219 203.609375 " fill-opacity="1" fill-rule="nonzero"/></g><g clip-path="url(#76e647d8c1)"><path fill="#d73114" d="M 162.71875 6.882812 L 162.71875 203.609375 C 162.71875 204.011719 162.402344 204.332031 161.996094 204.332031 L 54.949219 204.332031 C 54.542969 204.332031 54.226562 204.011719 54.226562 203.609375 L 54.226562 6.882812 C 54.226562 6.480469 54.542969 6.164062 54.949219 6.164062 L 161.996094 6.164062 C 162.402344 6.164062 162.71875 6.480469 162.71875 6.882812 Z M 161.273438 202.886719 L 161.273438 7.605469 L 55.671875 7.605469 L 55.671875 202.886719 Z M 161.273438 202.886719 " fill-opacity="1" fill-rule="nonzero"/></g><g clip-path="url(#a72fcc801f)"><path fill="#ffffff" d="M 132.265625 164.992188 C 131.222656 167.167969 129.902344 169.160156 128.304688 170.96875 C 126.707031 172.773438 124.898438 174.332031 122.871094 175.640625 L 122.871094 186.761719 C 122.871094 187.386719 122.644531 187.914062 122.1875 188.339844 L 114.007812 196.546875 L 157.542969 196.546875 L 157.542969 179.03125 Z M 132.265625 164.992188 " fill-opacity="1" fill-rule="nonzero"/></g><g clip-path="url(#fd7f0991e4)"><path fill="#ffffff" d="M 94.203125 186.761719 L 94.203125 175.640625 C 92.175781 174.332031 90.363281 172.773438 88.765625 170.96875 C 87.171875 169.160156 85.851562 167.167969 84.804688 164.992188 L 59.527344 179.03125 L 59.527344 196.546875 L 103.0625 196.546875 L 94.886719 188.339844 C 94.425781 187.914062 94.199219 187.386719 94.203125 186.761719 Z M 94.203125 186.761719 " fill-opacity="1" fill-rule="nonzero"/></g><path fill="#ffffff" d="M 118.347656 165.648438 C 118.347656 165.003906 118.285156 164.367188 118.160156 163.734375 C 118.035156 163.101562 117.847656 162.488281 117.601562 161.890625 C 117.355469 161.296875 117.054688 160.730469 116.695312 160.195312 C 116.335938 159.660156 115.929688 159.164062 115.476562 158.707031 C 115.019531 158.253906 114.523438 157.847656 113.988281 157.488281 C 113.453125 157.128906 112.886719 156.828125 112.292969 156.582031 C 111.695312 156.335938 111.082031 156.148438 110.449219 156.023438 C 109.816406 155.898438 109.179688 155.835938 108.535156 155.835938 C 107.890625 155.835938 107.253906 155.898438 106.621094 156.023438 C 105.988281 156.148438 105.375 156.335938 104.78125 156.582031 C 104.183594 156.828125 103.621094 157.128906 103.082031 157.488281 C 102.546875 157.847656 102.050781 158.253906 101.597656 158.707031 C 101.140625 159.164062 100.734375 159.660156 100.375 160.195312 C 100.019531 160.730469 99.714844 161.296875 99.46875 161.890625 C 99.222656 162.488281 99.035156 163.101562 98.910156 163.734375 C 98.785156 164.367188 98.722656 165.003906 98.722656 165.648438 L 98.722656 185.8125 L 108.535156 195.625 L 118.347656 185.8125 Z M 110.050781 167.90625 L 107.019531 167.90625 C 106.71875 167.90625 106.429688 167.851562 106.152344 167.734375 C 105.878906 167.621094 105.632812 167.457031 105.421875 167.246094 C 105.210938 167.035156 105.046875 166.789062 104.929688 166.511719 C 104.816406 166.234375 104.757812 165.949219 104.757812 165.648438 C 104.757812 165.347656 104.816406 165.058594 104.929688 164.78125 C 105.046875 164.507812 105.210938 164.261719 105.421875 164.050781 C 105.632812 163.839844 105.878906 163.675781 106.152344 163.558594 C 106.429688 163.445312 106.71875 163.386719 107.019531 163.386719 L 110.050781 163.386719 C 110.351562 163.386719 110.640625 163.445312 110.917969 163.558594 C 111.195312 163.675781 111.4375 163.839844 111.652344 164.050781 C 111.863281 164.261719 112.027344 164.507812 112.140625 164.78125 C 112.253906 165.058594 112.3125 165.347656 112.3125 165.648438 C 112.3125 165.949219 112.253906 166.234375 112.140625 166.511719 C 112.027344 166.789062 111.863281 167.035156 111.652344 167.246094 C 111.4375 167.457031 111.195312 167.621094 110.917969 167.734375 C 110.640625 167.851562 110.351562 167.90625 110.050781 167.90625 Z M 110.050781 167.90625 " fill-opacity="1" fill-rule="nonzero"/><path fill="#ffffff" d="M 130.394531 153.574219 L 130.394531 131.714844 L 86.679688 131.714844 L 86.679688 153.574219 C 86.679688 155.140625 86.84375 156.6875 87.175781 158.214844 C 87.507812 159.742188 88 161.21875 88.648438 162.644531 C 89.296875 164.066406 90.089844 165.40625 91.027344 166.660156 C 91.960938 167.914062 93.019531 169.054688 94.203125 170.078125 L 94.203125 165.648438 C 94.203125 164.707031 94.292969 163.773438 94.476562 162.851562 C 94.664062 161.929688 94.933594 161.035156 95.292969 160.164062 C 95.65625 159.296875 96.097656 158.46875 96.621094 157.6875 C 97.144531 156.90625 97.738281 156.183594 98.402344 155.515625 C 99.066406 154.851562 99.792969 154.257812 100.574219 153.734375 C 101.355469 153.210938 102.183594 152.769531 103.050781 152.410156 C 103.921875 152.050781 104.816406 151.78125 105.738281 151.597656 C 106.664062 151.414062 107.59375 151.320312 108.535156 151.320312 C 109.476562 151.320312 110.410156 151.414062 111.332031 151.597656 C 112.253906 151.78125 113.148438 152.050781 114.019531 152.410156 C 114.890625 152.769531 115.714844 153.210938 116.496094 153.734375 C 117.28125 154.257812 118.003906 154.851562 118.667969 155.515625 C 119.335938 156.183594 119.929688 156.90625 120.453125 157.6875 C 120.972656 158.46875 121.417969 159.296875 121.777344 160.164062 C 122.136719 161.035156 122.410156 161.929688 122.59375 162.851562 C 122.777344 163.773438 122.871094 164.707031 122.871094 165.648438 L 122.871094 170.078125 C 124.050781 169.054688 125.109375 167.914062 126.046875 166.660156 C 126.980469 165.40625 127.773438 164.066406 128.421875 162.644531 C 129.074219 161.21875 129.5625 159.742188 129.894531 158.214844 C 130.226562 156.6875 130.394531 155.140625 130.394531 153.574219 Z M 102.5 143.761719 L 96.460938 143.761719 C 96.160156 143.761719 95.871094 143.703125 95.59375 143.589844 C 95.316406 143.476562 95.070312 143.3125 94.859375 143.101562 C 94.644531 142.890625 94.480469 142.644531 94.367188 142.367188 C 94.25 142.089844 94.195312 141.800781 94.195312 141.5 C 94.195312 141.199219 94.25 140.910156 94.367188 140.632812 C 94.480469 140.355469 94.644531 140.113281 94.859375 139.898438 C 95.070312 139.6875 95.316406 139.523438 95.59375 139.410156 C 95.871094 139.296875 96.160156 139.238281 96.460938 139.242188 L 102.5 139.242188 C 102.800781 139.238281 103.089844 139.296875 103.367188 139.410156 C 103.644531 139.523438 103.890625 139.6875 104.101562 139.898438 C 104.3125 140.113281 104.476562 140.355469 104.59375 140.632812 C 104.707031 140.910156 104.765625 141.199219 104.765625 141.5 C 104.765625 141.800781 104.707031 142.089844 104.59375 142.367188 C 104.476562 142.644531 104.3125 142.890625 104.101562 143.101562 C 103.890625 143.3125 103.644531 143.476562 103.367188 143.589844 C 103.089844 143.703125 102.800781 143.761719 102.5 143.761719 Z M 120.609375 143.761719 L 114.574219 143.761719 C 114.273438 143.761719 113.984375 143.703125 113.707031 143.589844 C 113.425781 143.476562 113.183594 143.3125 112.96875 143.101562 C 112.757812 142.890625 112.59375 142.644531 112.476562 142.367188 C 112.363281 142.089844 112.304688 141.800781 112.304688 141.5 C 112.304688 141.199219 112.363281 140.910156 112.476562 140.632812 C 112.59375 140.355469 112.757812 140.113281 112.96875 139.898438 C 113.183594 139.6875 113.425781 139.523438 113.707031 139.410156 C 113.984375 139.296875 114.273438 139.238281 114.574219 139.242188 L 120.609375 139.242188 C 120.910156 139.238281 121.199219 139.296875 121.476562 139.410156 C 121.753906 139.523438 122 139.6875 122.210938 139.898438 C 122.425781 140.113281 122.589844 140.355469 122.703125 140.632812 C 122.820312 140.910156 122.878906 141.199219 122.878906 141.5 C 122.878906 141.800781 122.820312 142.089844 122.703125 142.367188 C 122.589844 142.644531 122.425781 142.890625 122.210938 143.101562 C 122 143.3125 121.753906 143.476562 121.476562 143.589844 C 121.199219 143.703125 120.910156 143.761719 120.609375 143.761719 Z M 120.609375 143.761719 " fill-opacity="1" fill-rule="nonzero"/><g clip-path="url(#74a81fd96f)"><path fill="#ffffff" d="M 130.898438 127.195312 L 135.507812 108.789062 L 121.324219 113.515625 C 120.871094 113.660156 120.414062 113.660156 119.960938 113.527344 C 119.503906 113.390625 119.125 113.140625 118.824219 112.773438 L 108.535156 99.894531 L 98.246094 112.773438 C 97.945312 113.140625 97.566406 113.390625 97.109375 113.527344 C 96.65625 113.660156 96.203125 113.660156 95.75 113.515625 L 81.5625 108.789062 L 86.171875 127.195312 Z M 130.898438 127.195312 " fill-opacity="1" fill-rule="nonzero"/></g><g fill="#ffffff" fill-opacity="1"><g transform="translate(170.499714, 193.561543)"><g><path d="M 66.8125 -5.34375 C 67.4375 -4.257812 67.75 -3.367188 67.75 -2.671875 C 67.75 -1.816406 67.414062 -1.15625 66.75 -0.6875 C 66.09375 -0.226562 65.144531 0 63.90625 0 C 63.132812 0 62.515625 -0.148438 62.046875 -0.453125 C 61.585938 -0.765625 61.164062 -1.234375 60.78125 -1.859375 L 39.390625 -36.015625 L 18.59375 -36.015625 L 18.59375 -3.484375 C 18.59375 -2.472656 18.28125 -1.640625 17.65625 -0.984375 C 17.039062 -0.328125 16.191406 0 15.109375 0 C 14.097656 0 13.265625 -0.328125 12.609375 -0.984375 C 11.953125 -1.640625 11.625 -2.472656 11.625 -3.484375 L 11.625 -87.265625 C 11.625 -88.347656 11.953125 -89.195312 12.609375 -89.8125 C 13.265625 -90.4375 14.097656 -90.75 15.109375 -90.75 L 37.296875 -90.75 C 42.878906 -90.75 47.878906 -89.585938 52.296875 -87.265625 C 56.710938 -84.941406 60.160156 -81.6875 62.640625 -77.5 C 65.117188 -73.320312 66.359375 -68.5625 66.359375 -63.21875 C 66.359375 -56.863281 64.59375 -51.378906 61.0625 -46.765625 C 57.539062 -42.160156 52.796875 -39.003906 46.828125 -37.296875 Z M 37.296875 -43 C 41.554688 -43 45.351562 -43.847656 48.6875 -45.546875 C 52.019531 -47.253906 54.632812 -49.65625 56.53125 -52.75 C 58.425781 -55.851562 59.375 -59.34375 59.375 -63.21875 C 59.375 -67.164062 58.425781 -70.707031 56.53125 -73.84375 C 54.632812 -76.976562 52.019531 -79.414062 48.6875 -81.15625 C 45.351562 -82.90625 41.554688 -83.78125 37.296875 -83.78125 L 18.59375 -83.78125 L 18.59375 -43 Z M 37.296875 -43 "/></g></g></g><g fill="#ffffff" fill-opacity="1"><g transform="translate(234.756935, 193.561543)"><g><path d="M 36.84375 -64.140625 C 42.488281 -64.140625 47.539062 -62.800781 52 -60.125 C 56.457031 -57.457031 59.925781 -53.757812 62.40625 -49.03125 C 64.882812 -44.3125 66.125 -38.929688 66.125 -32.890625 C 66.125 -31.878906 65.8125 -31.082031 65.1875 -30.5 C 64.570312 -29.914062 63.757812 -29.625 62.75 -29.625 L 14.0625 -29.625 C 14.289062 -25.0625 15.488281 -20.976562 17.65625 -17.375 C 19.832031 -13.769531 22.738281 -10.957031 26.375 -8.9375 C 30.019531 -6.925781 34.085938 -5.921875 38.578125 -5.921875 C 41.597656 -5.921875 44.640625 -6.441406 47.703125 -7.484375 C 50.765625 -8.535156 53.1875 -9.914062 54.96875 -11.625 C 55.738281 -12.238281 56.550781 -12.546875 57.40625 -12.546875 C 58.257812 -12.546875 58.957031 -12.316406 59.5 -11.859375 C 60.351562 -11.160156 60.78125 -10.34375 60.78125 -9.40625 C 60.78125 -8.632812 60.429688 -7.898438 59.734375 -7.203125 C 57.253906 -4.953125 54.019531 -3.09375 50.03125 -1.625 C 46.039062 -0.15625 42.222656 0.578125 38.578125 0.578125 C 32.460938 0.578125 27.019531 -0.796875 22.25 -3.546875 C 17.488281 -6.296875 13.75 -10.128906 11.03125 -15.046875 C 8.320312 -19.960938 6.96875 -25.519531 6.96875 -31.71875 C 6.96875 -38 8.226562 -43.597656 10.75 -48.515625 C 13.269531 -53.429688 16.796875 -57.265625 21.328125 -60.015625 C 25.859375 -62.765625 31.03125 -64.140625 36.84375 -64.140625 Z M 36.84375 -57.640625 C 30.789062 -57.640625 25.691406 -55.625 21.546875 -51.59375 C 17.410156 -47.5625 14.953125 -42.253906 14.171875 -35.671875 L 59.375 -35.671875 C 58.832031 -42.253906 56.507812 -47.5625 52.40625 -51.59375 C 48.300781 -55.625 43.113281 -57.640625 36.84375 -57.640625 Z M 36.84375 -57.640625 "/></g></g></g><g fill="#ffffff" fill-opacity="1"><g transform="translate(299.13036, 193.561543)"><g><path d="M 16.265625 0 C 15.253906 0 14.421875 -0.328125 13.765625 -0.984375 C 13.109375 -1.640625 12.78125 -2.472656 12.78125 -3.484375 L 12.78125 -60.078125 C 12.78125 -61.160156 13.109375 -62.007812 13.765625 -62.625 C 14.421875 -63.25 15.253906 -63.5625 16.265625 -63.5625 C 17.347656 -63.5625 18.195312 -63.25 18.8125 -62.625 C 19.4375 -62.007812 19.75 -61.160156 19.75 -60.078125 L 19.75 -3.484375 C 19.75 -2.472656 19.4375 -1.640625 18.8125 -0.984375 C 18.195312 -0.328125 17.347656 0 16.265625 0 Z M 16.140625 -76.921875 C 14.597656 -76.921875 13.320312 -77.441406 12.3125 -78.484375 C 11.300781 -79.535156 10.796875 -80.835938 10.796875 -82.390625 C 10.796875 -84.085938 11.335938 -85.398438 12.421875 -86.328125 C 13.515625 -87.265625 14.796875 -87.734375 16.265625 -87.734375 C 17.734375 -87.734375 18.988281 -87.265625 20.03125 -86.328125 C 21.082031 -85.398438 21.609375 -84.085938 21.609375 -82.390625 C 21.609375 -80.835938 21.082031 -79.535156 20.03125 -78.484375 C 18.988281 -77.441406 17.691406 -76.921875 16.140625 -76.921875 Z M 16.140625 -76.921875 "/></g></g></g><g fill="#ffffff" fill-opacity="1"><g transform="translate(325.274674, 193.561543)"><g><path d="M 32.078125 0.703125 C 27.578125 0.703125 23.195312 -0.0859375 18.9375 -1.671875 C 14.675781 -3.265625 11.148438 -5.691406 8.359375 -8.953125 C 7.816406 -9.566406 7.546875 -10.265625 7.546875 -11.046875 C 7.546875 -12.128906 8.050781 -13.019531 9.0625 -13.71875 C 9.53125 -14.101562 10.191406 -14.296875 11.046875 -14.296875 C 12.128906 -14.296875 13.019531 -13.867188 13.71875 -13.015625 C 17.582031 -8.285156 23.816406 -5.921875 32.421875 -5.921875 C 38.535156 -5.921875 43.046875 -7.003906 45.953125 -9.171875 C 48.859375 -11.347656 50.3125 -14.140625 50.3125 -17.546875 C 50.3125 -23.671875 44.382812 -27.582031 32.53125 -29.28125 C 25.019531 -30.363281 19.347656 -32.414062 15.515625 -35.4375 C 11.679688 -38.457031 9.765625 -42.097656 9.765625 -46.359375 C 9.765625 -52.015625 11.832031 -56.410156 15.96875 -59.546875 C 20.113281 -62.691406 25.519531 -64.265625 32.1875 -64.265625 C 41.945312 -64.265625 49.347656 -60.773438 54.390625 -53.796875 C 54.847656 -53.253906 55.078125 -52.597656 55.078125 -51.828125 C 55.078125 -50.742188 54.457031 -49.851562 53.21875 -49.15625 C 52.445312 -48.84375 51.867188 -48.6875 51.484375 -48.6875 C 50.316406 -48.6875 49.347656 -49.191406 48.578125 -50.203125 C 44.617188 -55.234375 39.078125 -57.75 31.953125 -57.75 C 27.234375 -57.75 23.476562 -56.722656 20.6875 -54.671875 C 17.894531 -52.617188 16.5 -50.082031 16.5 -47.0625 C 16.5 -43.96875 17.832031 -41.488281 20.5 -39.625 C 23.175781 -37.769531 27.65625 -36.375 33.9375 -35.4375 C 42.144531 -34.28125 48.050781 -32.09375 51.65625 -28.875 C 55.257812 -25.65625 57.0625 -21.765625 57.0625 -17.203125 C 57.0625 -13.640625 55.914062 -10.5 53.625 -7.78125 C 51.34375 -5.070312 48.300781 -2.976562 44.5 -1.5 C 40.707031 -0.03125 36.566406 0.703125 32.078125 0.703125 Z M 32.078125 0.703125 "/></g></g></g><g fill="#ffffff" fill-opacity="1"><g transform="translate(381.16565, 193.561543)"><g><path d="M 102.140625 -90.75 C 103.148438 -90.75 103.960938 -90.421875 104.578125 -89.765625 C 105.203125 -89.109375 105.515625 -88.238281 105.515625 -87.15625 C 105.515625 -86.84375 105.4375 -86.300781 105.28125 -85.53125 L 81.34375 -3.015625 C 81.03125 -2.085938 80.546875 -1.351562 79.890625 -0.8125 C 79.234375 -0.269531 78.515625 0 77.734375 0 C 76.804688 0 76.03125 -0.269531 75.40625 -0.8125 C 74.789062 -1.351562 74.367188 -2.085938 74.140625 -3.015625 L 54.390625 -72.859375 L 34.859375 -3.015625 C 34.085938 -1.003906 32.847656 0 31.140625 0 C 30.285156 0 29.53125 -0.289062 28.875 -0.875 C 28.21875 -1.457031 27.773438 -2.171875 27.546875 -3.015625 L 3.484375 -85.53125 C 3.328125 -86.300781 3.25 -86.800781 3.25 -87.03125 C 3.25 -88.113281 3.554688 -89.003906 4.171875 -89.703125 C 4.796875 -90.398438 5.648438 -90.75 6.734375 -90.75 C 8.515625 -90.75 9.640625 -89.859375 10.109375 -88.078125 L 31.140625 -15.34375 L 51.125 -85.0625 C 51.28125 -85.675781 51.6875 -86.195312 52.34375 -86.625 C 53.007812 -87.050781 53.691406 -87.265625 54.390625 -87.265625 C 55.160156 -87.265625 55.851562 -87.050781 56.46875 -86.625 C 57.09375 -86.195312 57.519531 -85.632812 57.75 -84.9375 L 77.734375 -15.34375 L 98.765625 -88.4375 C 98.921875 -89.125 99.304688 -89.679688 99.921875 -90.109375 C 100.546875 -90.535156 101.285156 -90.75 102.140625 -90.75 Z M 102.140625 -90.75 "/></g></g></g><g fill="#ffffff" fill-opacity="1"><g transform="translate(483.768184, 193.561543)"><g><path d="M 36.84375 -64.140625 C 42.488281 -64.140625 47.539062 -62.800781 52 -60.125 C 56.457031 -57.457031 59.925781 -53.757812 62.40625 -49.03125 C 64.882812 -44.3125 66.125 -38.929688 66.125 -32.890625 C 66.125 -31.878906 65.8125 -31.082031 65.1875 -30.5 C 64.570312 -29.914062 63.757812 -29.625 62.75 -29.625 L 14.0625 -29.625 C 14.289062 -25.0625 15.488281 -20.976562 17.65625 -17.375 C 19.832031 -13.769531 22.738281 -10.957031 26.375 -8.9375 C 30.019531 -6.925781 34.085938 -5.921875 38.578125 -5.921875 C 41.597656 -5.921875 44.640625 -6.441406 47.703125 -7.484375 C 50.765625 -8.535156 53.1875 -9.914062 54.96875 -11.625 C 55.738281 -12.238281 56.550781 -12.546875 57.40625 -12.546875 C 58.257812 -12.546875 58.957031 -12.316406 59.5 -11.859375 C 60.351562 -11.160156 60.78125 -10.34375 60.78125 -9.40625 C 60.78125 -8.632812 60.429688 -7.898438 59.734375 -7.203125 C 57.253906 -4.953125 54.019531 -3.09375 50.03125 -1.625 C 46.039062 -0.15625 42.222656 0.578125 38.578125 0.578125 C 32.460938 0.578125 27.019531 -0.796875 22.25 -3.546875 C 17.488281 -6.296875 13.75 -10.128906 11.03125 -15.046875 C 8.320312 -19.960938 6.96875 -25.519531 6.96875 -31.71875 C 6.96875 -38 8.226562 -43.597656 10.75 -48.515625 C 13.269531 -53.429688 16.796875 -57.265625 21.328125 -60.015625 C 25.859375 -62.765625 31.03125 -64.140625 36.84375 -64.140625 Z M 36.84375 -57.640625 C 30.789062 -57.640625 25.691406 -55.625 21.546875 -51.59375 C 17.410156 -47.5625 14.953125 -42.253906 14.171875 -35.671875 L 59.375 -35.671875 C 58.832031 -42.253906 56.507812 -47.5625 52.40625 -51.59375 C 48.300781 -55.625 43.113281 -57.640625 36.84375 -57.640625 Z M 36.84375 -57.640625 "/></g></g></g><g fill="#ffffff" fill-opacity="1"><g transform="translate(548.141608, 193.561543)"><g><path d="M 42.875 -64.265625 C 49 -64.265625 54.539062 -62.847656 59.5 -60.015625 C 64.457031 -57.191406 68.347656 -53.300781 71.171875 -48.34375 C 74.003906 -43.382812 75.421875 -37.882812 75.421875 -31.84375 C 75.421875 -25.71875 74.003906 -20.175781 71.171875 -15.21875 C 68.347656 -10.257812 64.457031 -6.363281 59.5 -3.53125 C 54.539062 -0.707031 49 0.703125 42.875 0.703125 C 36.914062 0.703125 31.472656 -0.671875 26.546875 -3.421875 C 21.628906 -6.171875 17.738281 -9.984375 14.875 -14.859375 C 12.007812 -19.742188 10.535156 -25.171875 10.453125 -31.140625 L 10.453125 -87.265625 C 10.453125 -88.347656 10.78125 -89.195312 11.4375 -89.8125 C 12.101562 -90.4375 12.9375 -90.75 13.9375 -90.75 C 15.03125 -90.75 15.882812 -90.4375 16.5 -89.8125 C 17.125 -89.195312 17.4375 -88.347656 17.4375 -87.265625 L 17.4375 -51.015625 C 19.988281 -55.117188 23.488281 -58.351562 27.9375 -60.71875 C 32.394531 -63.082031 37.375 -64.265625 42.875 -64.265625 Z M 42.875 -5.8125 C 47.675781 -5.8125 52.015625 -6.953125 55.890625 -9.234375 C 59.765625 -11.523438 62.820312 -14.644531 65.0625 -18.59375 C 67.3125 -22.539062 68.4375 -26.957031 68.4375 -31.84375 C 68.4375 -36.71875 67.3125 -41.128906 65.0625 -45.078125 C 62.820312 -49.035156 59.765625 -52.132812 55.890625 -54.375 C 52.015625 -56.625 47.675781 -57.75 42.875 -57.75 C 38.070312 -57.75 33.734375 -56.625 29.859375 -54.375 C 25.984375 -52.132812 22.941406 -49.035156 20.734375 -45.078125 C 18.535156 -41.128906 17.4375 -36.71875 17.4375 -31.84375 C 17.4375 -26.957031 18.535156 -22.539062 20.734375 -18.59375 C 22.941406 -14.644531 25.984375 -11.523438 29.859375 -9.234375 C 33.734375 -6.953125 38.070312 -5.8125 42.875 -5.8125 Z M 42.875 -5.8125 "/></g></g></g></svg>